<?xml version="1.0" encoding="UTF-8"?>
<svg id="Capa_1" xmlns="http://www.w3.org/2000/svg" version="1.1" xmlns:xlink="http://www.w3.org/1999/xlink" viewBox="0 0 1080 1080">
  <!-- Generator: Adobe Illustrator 30.3.0, SVG Export Plug-In . SVG Version: 2.1.3 Build 182)  -->
  <defs>
    <style>
      .st0 {
        fill: url(#Degradado_sin_nombre_121);
      }

      .st1 {
        fill: url(#Degradado_sin_nombre_12);
      }
    </style>
    <linearGradient id="Degradado_sin_nombre_12" data-name="Degradado sin nombre 12" x1="178.68" y1="373.8" x2="188.11" y2="660.88" gradientUnits="userSpaceOnUse">
      <stop offset="0" stop-color="#ff8421"/>
      <stop offset=".18" stop-color="#f56121"/>
      <stop offset=".44" stop-color="#ea3721"/>
      <stop offset=".67" stop-color="#e21921"/>
      <stop offset=".86" stop-color="#dd0621"/>
      <stop offset="1" stop-color="#dc0022"/>
    </linearGradient>
    <linearGradient id="Degradado_sin_nombre_121" data-name="Degradado sin nombre 12" x1="264.35" y1="355.68" x2="274.27" y2="657.75" xlink:href="#Degradado_sin_nombre_12"/>
  </defs>
  <path class="st1" d="M221.65,513.21c-40.51-76.27-31.47-95.06-27.81-115.93.34-1.95-2.25-3.06-3.51-1.51-22.38,27.66-25.54,41.62-26.76,62.72-.93,16.03,2.1,32,7.82,47.07,5.14,13.53,12.56,38.21,3.09,48.42-22.54,24.3-44.56-19.82-52.8-39.4-.81-1.91-3.75-1.39-3.82.68-3.09,92.36,26.42,124.21,54.11,134.02,27.83,9.86,60.3-.86,75-25.79,16.24-27.54-7.31-76.39-25.31-110.28Z"/>
  <path class="st0" d="M226.82,317.83c-.09-2.23-2.89-3.5-4.13-1.67-15.23,22.38-35.25,110.29,12.34,186.04,68,108.23,20.18,145.56-19.27,162.11-2.65,1.11-1.31,5.4,1.53,5.53,23.84,1.06,99.17-2.36,113.65-71.46,5.44-25.95-5.63-57.15-18.65-80.1-27.91-49.2-80.11-71.98-85.48-200.45Z"/>
  <path d="M389.95,606.25c1.66-6.78,2.49-15.93,2.49-27.5v-36.71c0-11.58-.83-20.72-2.49-27.5h75.15l3.97,26.61c-1.6-1.09-3.77-1.92-6.65-2.37s-7.16-.64-12.73-.64h-33.26v16.25h26.29c7.1,0,12.02-.19,14.84-.64v16.12c-3.65-.58-8.63-.83-14.84-.83h-26.29v9.98c0,11.32.77,20.4,2.3,27.25h-28.78Z"/>
  <path d="M469.84,560.4c0-14.9,5.37-27.44,14.14-35.37,8.7-7.87,20.72-12.28,34.22-12.28s25.58,4.41,34.35,12.28c8.76,7.93,14.14,20.47,14.14,35.37s-5.37,27.5-14.14,35.43c-8.76,7.93-20.79,12.28-34.35,12.28-26.8.06-48.42-17.08-48.35-47.71ZM535.27,581.31c4.41-5.18,6.65-12.15,6.65-20.91s-2.24-15.73-6.65-20.91c-4.48-5.18-10.17-7.74-17.08-7.74s-12.47,2.56-16.89,7.74c-4.41,5.18-6.65,12.15-6.65,20.91s2.24,15.73,6.65,20.91c4.41,5.18,10.04,7.8,16.89,7.8s12.6-2.62,17.08-7.8Z"/>
  <path d="M732.64,514.53c.57,2.88,1.15,6.97,1.66,12.29.45,5.3.71,10.35.71,15.09v28.97h-1.73l-39.91-56.22-26.22-.13c1.67,6.78,2.5,15.93,2.5,27.5v27.89c-2.75,6.59-11.7,10.36-18.86,10.36-5.31,0-7.93-4.29-11.51-8.57-1.35-1.47-2.63-2.87-3.97-4.15-2.62-2.5-7.1-4.41-12.41-4.41h-.25v-.77h1.66c18.62.25,33.39-9.72,33.19-24.36.07-14.84-14.96-23.73-33.83-23.48h-52.12c1.47,6.6,2.23,15.8,2.23,27.5v36.72c0,11.58-.76,20.78-2.23,27.5h28.72c-1.6-6.59-2.36-15.73-2.36-27.5v-9.85c.95-.52,3.83-.77,8.63-.77,12.47,0,16.88,7.87,20.34,16.76,4.22,10.94,7.75,21.36,24.38,21.36h44.7c-.57-3.01-1.15-7.36-1.6-13.05-.44-5.69-.7-11.06-.7-16.05v-28.91h1.66l41.13,58.01h22.71v-64.22c0-11.51.76-20.65,2.3-27.5h-28.77ZM618.41,556.62h-20.53v-19.25h21.61c3.97,0,7.23.9,9.79,2.69,2.55,1.79,3.83,4.09,3.83,6.84,0,5.96-5.82,9.72-14.71,9.72Z"/>
  <path d="M768.32,606.25c1.66-6.78,2.49-15.93,2.49-27.5v-36.71c0-11.58-.83-20.72-2.49-27.5l26.22.13,39.91,56.22h1.73v-28.97c0-4.73-.26-9.79-.7-15.09-.51-5.31-1.09-9.4-1.66-12.28h28.78c-1.54,6.84-2.3,15.99-2.3,27.5v64.22h-22.71l-41.13-58.01h-1.66v28.91c0,4.99.26,10.36.7,16.05.45,5.69,1.02,10.04,1.6,13.05h-28.78Z"/>
  <path d="M865.53,560.4c0-14.9,5.37-27.44,14.14-35.37,8.7-7.87,20.72-12.28,34.22-12.28s25.58,4.41,34.35,12.28c8.76,7.93,14.14,20.47,14.14,35.37s-5.37,27.5-14.14,35.43c-8.76,7.93-20.79,12.28-34.35,12.28-26.8.06-48.42-17.08-48.35-47.71ZM930.97,581.31c4.41-5.18,6.65-12.15,6.65-20.91s-2.24-15.73-6.65-20.91c-4.48-5.18-10.17-7.74-17.08-7.74s-12.47,2.56-16.89,7.74-6.65,12.15-6.65,20.91,2.24,15.73,6.65,20.91,10.04,7.8,16.89,7.8,12.6-2.62,17.08-7.8Z"/>
</svg>