<?xml version="1.0" encoding="UTF-8"?>
<svg id="Capa_1" xmlns="http://www.w3.org/2000/svg" version="1.1" xmlns:xlink="http://www.w3.org/1999/xlink" viewBox="0 0 1080 1080">
  <!-- Generator: Adobe Illustrator 30.3.0, SVG Export Plug-In . SVG Version: 2.1.3 Build 182)  -->
  <defs>
    <style>
      .st0 {
        fill: url(#Degradado_sin_nombre_121);
      }

      .st1 {
        fill: url(#Degradado_sin_nombre_12);
      }
    </style>
    <linearGradient id="Degradado_sin_nombre_12" data-name="Degradado sin nombre 12" x1="459.6" y1="333.74" x2="475.97" y2="832.04" gradientUnits="userSpaceOnUse">
      <stop offset="0" stop-color="#ff8421"/>
      <stop offset=".18" stop-color="#f56121"/>
      <stop offset=".44" stop-color="#ea3721"/>
      <stop offset=".67" stop-color="#e21921"/>
      <stop offset=".86" stop-color="#dd0621"/>
      <stop offset="1" stop-color="#dc0022"/>
    </linearGradient>
    <linearGradient id="Degradado_sin_nombre_121" data-name="Degradado sin nombre 12" x1="608.31" y1="302.3" x2="625.53" y2="826.6" xlink:href="#Degradado_sin_nombre_12"/>
  </defs>
  <path class="st1" d="M534.2,575.71c-70.32-132.39-54.62-165-48.27-201.23.59-3.39-3.91-5.32-6.1-2.61-38.84,48.01-44.33,72.24-46.45,108.86-1.61,27.82,3.64,55.55,13.57,81.7,8.92,23.48,21.81,66.33,5.36,84.05-39.12,42.18-77.34-34.41-91.65-68.39-1.4-3.32-6.51-2.41-6.63,1.18-5.37,160.31,45.86,215.6,93.92,232.63,48.31,17.11,104.66-1.49,130.18-44.76,28.19-47.79-12.69-132.59-43.93-191.42Z"/>
  <path class="st0" d="M543.17,236.59c-.16-3.87-5.02-6.07-7.17-2.9-26.43,38.85-61.19,191.44,21.43,322.92,118.04,187.86,35.03,252.66-33.44,281.38-4.6,1.93-2.28,9.37,2.66,9.59,41.37,1.84,172.14-4.1,197.26-124.04,9.43-45.04-9.77-99.19-32.37-139.03-48.45-85.4-139.05-124.95-148.36-347.93Z"/>
</svg>