<?xml version="1.0" encoding="UTF-8"?>
<svg id="Capa_1" data-name="Capa 1" xmlns="http://www.w3.org/2000/svg" viewBox="0 0 1080 1080">
  <defs>
    <style>
      .cls-1 {
        fill: #4c4c4c;
      }
    </style>
  </defs>
  <path class="cls-1" d="M260.94,514.84c.91.31.89.66,0,1.06-1.18.08-2.52.15-3.12-1.06h3.12Z"/>
  <path class="cls-1" d="M263.02,514.84c-.35.96-1.19,1-2.09,1.06v-1.06h2.09Z"/>
  <path class="cls-1" d="M612.5,467.35c3.89,2.77,11,2.59,15.22,7.73,1.46,1.77-.33,4.93-.83,6.58-3.31,10.87-12.76-1.73-28.39,1.05-7.54,1.34-11.74,7.41-11.12,15.21.54,6.68,4.8,11.61,9.51,16.43,8.53,8.73,17.75,16.39,25.75,25.62,7.31,8.43,9.81,18.8,8.59,29.73-1.59,14.22-11.26,25.3-25.41,28.35-15.58,3.36-39.03-.02-40.87-9.28-1.01-5.09,2.38-10.08,4.86-14.04,7.28,5.28,14.72,8.65,23.3,8.62,7.37-.03,13.56-4.14,15.67-11.06,2.55-8.32.61-16.87-5.48-23.1l-28.1-28.76c-6-6.14-9.15-14.21-9.32-22.59-.27-14.18,8.73-25.75,22.43-28.82,1.16-.26,1.87-.75,2.27-1.64h21.91Z"/>
  <path class="cls-1" d="M777.32,467.35c3.55,2.89,11.51,2.57,14.99,8.15,1.5,2.41-1.09,7.5-2.81,9.4-4.2,4.65-12.1-4.37-25.49-2.31-4.3.66-8.58,2.88-10.5,6.88-3.34,6.97-1.6,14.87,3.64,20.17l13.76,13.89,15.63,15.54c8.36,8.31,10.75,19.77,9.18,31.43-1.71,12.69-9.72,22.97-22.24,26.66-18.94,5.59-44.1-.17-44.11-9.11-.01-5.06,2.52-9.6,5.22-13.32,12.47,10.09,31.9,12.68,37.8.12,4.36-9.29,1.89-19.4-5.17-26.51l-23.83-24.01c-6.41-6.46-11.46-13.94-12.64-23.01-1.99-15.4,7.33-28.97,22.38-32.34,1.15-.26,1.85-.74,2.34-1.6l21.85-.02Z"/>
  <path class="cls-1" d="M281.01,492.33l2.76.94c.24-.4.85-.71,1.85-.94h20.26l1.84.93c.23-.77,1.36-.67,1.84,0l1.84-.93h3.68c9.81,3.64,28.7,2.65,26.1,12.23-1.02,3.76-3.39,6.84-5.93,9.77l-17.58,20.3c-22.23,27.82-39.5,58.45-52.91,91.42-3.57,8.77-6.8,16.83-10.87,25.19-4.36,8.96-12.73,17.17-15.36,13.42-4.61-6.57-2.31-14.73-5.41-15.81v-5.52l.94-1.84c-.82-.5-.7-2.82,0-3.69l-.94-2.75v-29.46c.31-1.91.62-3.75.92-5.5-.79-.92-.68-3.53,0-4.66-.3-1.68-.61-3.51-.92-5.5v-13.81c.35-2.47.63-4.92.83-7.34.03-17.69.07-37.17,7.16-54.17,4.49-10.77,10.59-17.62,22.08-20.49l13.2-1.79h4.6Z"/>
  <path class="cls-1" d="M372.91,737.83c-7.48,9.11-17.16,15.32-28.89,17.17-19.43,3.06-49.75-.53-43.41-18.67,6.47-18.53,15.32-35.42,26.42-51.74,15.85-23.32,33.16-44.81,52.67-65.13,28.44-29.62,61.06-53.34,98.58-69.88,12.16-5.36,31.93-14.86,40.48-5.95,3.79,3.95,5.48,9.85,5.72,15.47.65,15.26.56,30.25-.03,45.47-.42,10.93-5.55,19.67-14.52,25.44-8.65,5.57-17.24,10.27-26.76,14.65-30.29,13.94-57.13,32.83-79.69,57.44-10.82,11.81-20.46,23.45-30.56,35.74Z"/>
  <path class="cls-1" d="M282.49,726.94c-6.58,14.43-23.74,25.19-34.47,18.18-9.62-6.28-7.33-20.74-3.51-32.55,6.85-21.19,13.92-41.43,22.73-62.03,23.21-54.29,57.59-107.29,101.71-146.78,15.78-14.13,39.69-30.17,60.46-32.53,19.67-2.23,55.34-3.24,70.34,5.62,5.2,3.08,6.73,8.8,3.4,13.89-7.47,11.42-24.5,19.43-37.56,25.94-46.06,22.93-95.92,71.9-127.2,112.93-22.9,30.05-40.17,62.86-55.89,97.33Z"/>
  <path class="cls-1" d="M500.4,746.55c-19.14,8.05-45.59,6.83-67.42,5.36-7.16-.48-13.65-2.5-19.16-6.64-4.62-3.48-6.19-8.91-3.42-14.28,3.51-6.81,8.82-12.25,14.97-17.19,17.3-13.89,35.84-25.68,56.04-34.88,7.88-3.59,15.7-5.93,24.25-6.28,8.78-.37,16.22,5.23,17.19,14.13,1.06,9.65,1.19,19.36.11,29.06-1.54,13.93-9.75,25.34-22.55,30.72Z"/>
  <path class="cls-1" d="M884.34,594.23c-5.78,3.59-12.59,3.13-18.94,2.6-1.35-3.43-1.65-6.32-1.84-9.81v-49.84s-40.7.23-40.7.23l-.07,49.61c-.47,3.88-1.56,7.52-4.94,9.34-5.2,1-10.25.99-15.84.63l.05-124.99c5.81-2.62,11.84-2.45,18.09-2.34,1.92,2.18,2.22,4.84,2.58,7.83l.21,44.42,40.54.05.23-42.62c.44-3.34.89-6.66,3.65-8.53,5.7-1.44,11.41-1.37,17.03-1.03l-.06,124.45Z"/>
  <path class="cls-1" d="M706.14,472.22c4.96-3.78,11.61-2.3,17.42-2.51l-.5,71.28c-.11,15.6-1.02,30.7-5.34,45.68-9.59,12.84-34.6,14.54-50.84,11.42-25.34-4.86-29.52-31.26-29.67-55.31l-.45-70.38c6.11-3.04,12.62-2.99,19-2.6,1.66,3.56,2.21,6.66,2.23,10.41l.27,65.34c.07,17.17,5.58,38.86,23.38,38.36,6.27-.18,12.43-.49,17.97-3.48,2.4-13.49,3.46-26.44,3.54-39.97l.31-57.47c.02-3.04.21-8.6,2.69-10.76Z"/>
  <path class="cls-1" d="M916.73,594.14c-5.1,3.81-17.74,3.62-19.4,2.28-.94-.76-1.27-2.12-1.27-3.94l-.21-113.07c0-4.39.29-7.78,5.45-8.81,3.84-.77,9.17-1.83,13.15-.39,1.86.67,2.03,4.56,2.03,6.29v45.23s.26,72.42.26,72.42Z"/>
  <path class="cls-1" d="M807.75,665.7c-.51-.54-1.11-.41-1.81.38l-24.85,69.2c-5.24,2.81-10.68,2.77-16.52,2.58l-24.32-73.24c-2.2,9.36-.69,18.68-1.57,28.39l-4.78,53.07c-.86,9.55-11.45,8.89-22.69,6.68l6.42-76.38,5.11-57.16c.54-6.07,11.65-5.56,20.95-5.16,11.8,27.91,20.57,55.69,30.15,84.95l28.74-80.05c.59-1.64,1.71-2.8,2.9-3.8l18.51-1.36,1.67,9.75,6.11,73.97,4.35,53.13c-.57,1.78-3.84,2.97-5.38,3.03l-15.47.66c-2.02-2.55-2.69-5.56-2.93-8.95l-3.66-51.5-.93-28.2Z"/>
  <path class="cls-1" d="M877.42,688.33l-.13,48.87,44.79.12c.19,3.7-.72,7.35-1.95,10.88-1.44,4.14-4.92,5.89-9.21,5.95-18.13.24-35.78.63-54.12-.88-2.04-4.5-2.12-9.17-2.12-14.41l-.03-109.33-.36-11.52c3.63-1.53,7.6-3.76,11.81-3.77l53.21-.1c-.04,4.39-.4,7.69-1.39,11.25-1,3.19-3.62,5.19-7.08,5.1l-33.48.69-.2,40.2,38.84.09c-.4,4.14-.89,8.26-2.38,12.28-.97,2.89-3.35,4.55-6.45,4.56l-29.74.03Z"/>
  <path class="cls-1" d="M616.72,728.26l.21,22.66c-.48,1.76-4.49,2.84-6.14,2.91l-13.87.55c-1.87-2.97-2.52-6.16-2.53-10v-113.08c-12.02-.23-23.03.54-34.98-.61-1.57-5.53-.08-12.12,3.8-16.41,2.66-1.19,5.1-.25,7.92-.25l82.74.11c.29,4.46-.37,8.93-1.69,13.52-1.76,2.25-4.43,3.64-7.42,3.64l-28.01.02-.03,96.94Z"/>
  <path class="cls-1" d="M689.38,751.59c-6.42,3.37-19.44,3.42-21.25,2.18-.96-.66-1.55-2.06-1.54-3.78l.08-76.36-.39-50.16c-.03-3.92.36-7.01,5.01-8.32,4.56-1.28,10.48-2.22,15.47-.85,2.03.55,2.26,4.83,2.26,6.77l-.02,59.91.39,70.6Z"/>
  <path class="cls-1" d="M853.01,691.44l-2.05.43c.58-1.6.72-2.94,1.54-4.07.82,1.42.47,2.5.5,3.65Z"/>
</svg>